<svg width="46" height="47" viewBox="0 0 46 47" fill="none" xmlns="http://www.w3.org/2000/svg">
<path id="Exclude" fill-rule="evenodd" clip-rule="evenodd" d="M23 47C35.7025 47 46 36.4787 46 23.5C46 10.5213 35.7025 0 23 0C10.2975 0 0 10.5213 0 23.5C0 36.4787 10.2975 47 23 47ZM18.4483 28.7159V29.3636H24.8176V28.7159C24.8176 27.9962 24.9301 27.3845 25.155 26.8807C25.3799 26.3679 25.7128 25.9136 26.1536 25.5178C26.5944 25.1129 27.1387 24.7216 27.7864 24.3438C28.668 23.831 29.4372 23.2642 30.0939 22.6435C30.7596 22.0137 31.2769 21.2895 31.6458 20.4709C32.0236 19.6432 32.2125 18.6851 32.2125 17.5966C32.2125 15.9053 31.7762 14.4974 30.9036 13.3729C30.031 12.2393 28.839 11.3937 27.3276 10.8359C25.8162 10.2692 24.098 9.98579 22.1728 9.98579C20.4275 9.98579 18.8262 10.2782 17.3688 10.8629C15.9114 11.4387 14.7419 12.3473 13.8603 13.5888C12.9786 14.8213 12.5288 16.4271 12.5108 18.4062H19.4199C19.4199 17.8845 19.5414 17.4257 19.7843 17.0298C20.0362 16.634 20.3645 16.3236 20.7694 16.0987C21.1832 15.8738 21.633 15.7614 22.1188 15.7614C22.5686 15.7614 22.9779 15.8558 23.3468 16.0447C23.7156 16.2337 24.008 16.4991 24.2239 16.8409C24.4398 17.1828 24.5478 17.5786 24.5478 18.0284C24.5478 18.5322 24.4128 18.982 24.1429 19.3778C23.882 19.7737 23.5222 20.147 23.0634 20.4979C22.6136 20.8487 22.1008 21.2131 21.525 21.5909C20.8593 22.0227 20.2971 22.5085 19.8382 23.0483C19.3794 23.5791 19.0331 24.2853 18.7992 25.1669C18.5653 26.0485 18.4483 27.2315 18.4483 28.7159ZM19.0556 37.3388C19.8023 38.0675 20.6974 38.4318 21.7409 38.4318C22.4067 38.4318 23.0229 38.2654 23.5897 37.9325C24.1564 37.5907 24.6152 37.1364 24.9661 36.5696C25.3259 35.9938 25.5104 35.3551 25.5194 34.6534C25.5104 33.6278 25.1235 32.7507 24.3588 32.022C23.6032 31.2933 22.7305 30.929 21.7409 30.929C20.6974 30.929 19.8023 31.2933 19.0556 32.022C18.3179 32.7507 17.9535 33.6278 17.9625 34.6534C17.9535 35.706 18.3179 36.6011 19.0556 37.3388Z" fill="#878ECA"/>
</svg>
