<svg width="34" height="34" viewBox="0 0 34 34" fill="none" xmlns="http://www.w3.org/2000/svg">
<path id="Union" fill-rule="evenodd" clip-rule="evenodd" d="M4.76777 1.23223C3.79146 0.255922 2.20854 0.255922 1.23223 1.23223C0.255922 2.20854 0.255922 3.79146 1.23223 4.76777L13.7145 17.25L1.23223 29.7322C0.255919 30.7085 0.255919 32.2915 1.23223 33.2678C2.20854 34.2441 3.79145 34.2441 4.76777 33.2678L17.25 20.7855L29.2322 32.7678C30.2085 33.7441 31.7915 33.7441 32.7678 32.7678C33.7441 31.7915 33.7441 30.2085 32.7678 29.2322L20.7855 17.25L32.7678 5.26777C33.7441 4.29146 33.7441 2.70854 32.7678 1.73223C31.7915 0.755922 30.2085 0.755922 29.2322 1.73223L17.25 13.7145L4.76777 1.23223Z" fill="#878ECA"/>
</svg>
